<svg width="13" height="13" viewBox="0 0 13 13" fill="none" xmlns="http://www.w3.org/2000/svg">
<path d="M10.0375 7.10417H0.824542C0.590944 7.10417 0.395083 7.02556 0.236958 6.86835C0.078986 6.71115 0 6.51635 0 6.28398C0 6.0516 0.078986 5.85521 0.236958 5.69479C0.395083 5.53438 0.590944 5.45417 0.824542 5.45417H10.0375L5.99935 1.41602C5.83451 1.25117 5.75208 1.05799 5.75208 0.836458C5.75208 0.614931 5.83611 0.416473 6.00417 0.241084C6.17222 0.0803616 6.36701 0 6.58854 0C6.81007 0 7.00341 0.0826529 7.16856 0.247959L12.6179 5.70419C12.7004 5.78684 12.7608 5.87637 12.799 5.97277C12.8372 6.06917 12.8562 6.17253 12.8562 6.28283C12.8562 6.39299 12.8372 6.49634 12.799 6.5929C12.7608 6.6893 12.7035 6.77569 12.6271 6.85208L7.17292 12.3063C7.00486 12.4743 6.81389 12.5545 6.6 12.5469C6.38611 12.5392 6.19514 12.4551 6.02708 12.2943C5.85903 12.1189 5.775 11.9192 5.775 11.6951C5.775 11.4711 5.85903 11.2776 6.02708 11.1146L10.0375 7.10417Z" fill="#130F26"/>
</svg>
