<svg width="24" height="24" viewBox="0 0 24 24" fill="none" xmlns="http://www.w3.org/2000/svg">
<path d="M12 12.6666C11.2547 12.6666 10.624 12.4085 10.1077 11.8923C9.59147 11.376 9.33335 10.7453 9.33335 10C9.33335 9.25472 9.59147 8.62395 10.1077 8.1077C10.624 7.59147 11.2547 7.33335 12 7.33335C12.7453 7.33335 13.376 7.59147 13.8923 8.1077C14.4085 8.62395 14.6666 9.25472 14.6666 10C14.6666 10.7453 14.4085 11.376 13.8923 11.8923C13.376 12.4085 12.7453 12.6666 12 12.6666ZM12 21.1795L7.39284 22.6379C7.07831 22.7487 6.78977 22.7067 6.52721 22.5121C6.26463 22.3174 6.13334 22.0578 6.13334 21.7333V15.4113C5.45778 14.7056 4.93334 13.8892 4.56 12.962C4.18667 12.0347 4 11.0474 4 10C4 7.76668 4.77485 5.87502 6.32454 4.32502C7.87422 2.77501 9.76549 2 11.9984 2C14.2313 2 16.1231 2.77501 17.6738 4.32502C19.2246 5.87502 20 7.76668 20 10C20 11.0474 19.8133 12.0347 19.44 12.962C19.0667 13.8892 18.5422 14.7056 17.8667 15.4113V21.7333C17.8667 22.0578 17.7354 22.3174 17.4728 22.5121C17.2102 22.7067 16.9217 22.7487 16.6072 22.6379L12 21.1795ZM12 16.4C13.7778 16.4 15.2889 15.7778 16.5333 14.5333C17.7778 13.2889 18.4 11.7778 18.4 10C18.4 8.22222 17.7778 6.7111 16.5333 5.46665C15.2889 4.2222 13.7778 3.59998 12 3.59998C10.2222 3.59998 8.7111 4.2222 7.46665 5.46665C6.2222 6.7111 5.59998 8.22222 5.59998 10C5.59998 11.7778 6.2222 13.2889 7.46665 14.5333C8.7111 15.7778 10.2222 16.4 12 16.4ZM7.73332 20.7036L12 19.559L16.2667 20.7036V16.7405C15.6581 17.1371 14.9914 17.4461 14.2665 17.6677C13.5416 17.8892 12.7853 18 11.9978 18C11.2102 18 10.4547 17.8892 9.73127 17.6677C9.00786 17.4461 8.34187 17.1371 7.73332 16.7405V20.7036Z" fill="#130F26"/>
</svg>
